<?xml version="1.0" encoding="UTF-8" standalone="no"?>
<svg
   xmlns:dc="http://purl.org/dc/elements/1.1/"
   xmlns:cc="http://creativecommons.org/ns#"
   xmlns:rdf="http://www.w3.org/1999/02/22-rdf-syntax-ns#"
   xmlns:svg="http://www.w3.org/2000/svg"
   xmlns="http://www.w3.org/2000/svg"
   xmlns:sodipodi="http://sodipodi.sourceforge.net/DTD/sodipodi-0.dtd"
   xmlns:inkscape="http://www.inkscape.org/namespaces/inkscape"
   width="42.498093mm"
   height="32.000008mm"
   viewBox="0 0 42.498093 32.000008"
   version="1.1"
   id="svg2410"
   inkscape:version="1.0.2-2 (e86c870879, 2021-01-15)"
   sodipodi:docname="network.svg">
  <defs
     id="defs2404" />
  <sodipodi:namedview
     id="base"
     pagecolor="#ffffff"
     bordercolor="#666666"
     borderopacity="1.0"
     inkscape:pageopacity="0.0"
     inkscape:pageshadow="2"
     inkscape:zoom="2.8"
     inkscape:cx="54.275378"
     inkscape:cy="72.952198"
     inkscape:document-units="mm"
     inkscape:current-layer="layer1"
     inkscape:document-rotation="0"
     showgrid="false"
     fit-margin-top="1"
     fit-margin-left="1"
     fit-margin-right="1"
     fit-margin-bottom="1"
     lock-margins="true"
     inkscape:window-width="1520"
     inkscape:window-height="1198"
     inkscape:window-x="52"
     inkscape:window-y="52"
     inkscape:window-maximized="0" />
  <metadata
     id="metadata2407">
    <rdf:RDF>
      <cc:Work
         rdf:about="">
        <dc:format>image/svg+xml</dc:format>
        <dc:type
           rdf:resource="http://purl.org/dc/dcmitype/StillImage" />
        <dc:title></dc:title>
      </cc:Work>
    </rdf:RDF>
  </metadata>
  <g
     inkscape:groupmode="layer"
     id="layer2"
     inkscape:label="Tree"
     transform="translate(1.503563e-6,1.2474525)"
     sodipodi:insensitive="true">
    <g
       id="g1077"
       transform="translate(-83.834065,-98.735695)">
      <path
         id="path947"
         style="opacity:0.3;fill:none;stroke:#000000;stroke-width:0.141111;stroke-miterlimit:4;stroke-dasharray:none;stroke-opacity:0.658635"
         d="m 120.09558,113.48825 a 14.816899,14.816898 0 0 1 -14.8169,14.8169 14.816899,14.816898 0 0 1 -14.816895,-14.8169 14.816899,14.816898 0 0 1 14.816895,-14.816906 14.816899,14.816898 0 0 1 14.8169,14.816906 z" />
      <path
         id="path947-9"
         style="opacity:0.3;fill:none;stroke:#000000;stroke-width:0.141111;stroke-miterlimit:4;stroke-dasharray:none;stroke-opacity:0.658635"
         d="m 118.61389,113.48825 a 13.33521,13.335208 0 0 1 -13.33521,13.33521 13.33521,13.335208 0 0 1 -13.335201,-13.33521 13.33521,13.335208 0 0 1 13.335201,-13.33521 13.33521,13.335208 0 0 1 13.33521,13.33521 z" />
      <path
         id="path947-9-7"
         style="opacity:0.3;fill:none;stroke:#000000;stroke-width:0.141111;stroke-miterlimit:4;stroke-dasharray:none;stroke-opacity:0.658635"
         d="m 117.13219,113.48825 a 11.853523,11.853516 0 0 1 -11.85352,11.85352 11.853523,11.853516 0 0 1 -11.853498,-11.85352 11.853523,11.853516 0 0 1 11.853498,-11.85352 11.853523,11.853516 0 0 1 11.85352,11.85352 z" />
      <path
         id="path947-9-7-9"
         style="opacity:0.3;fill:none;stroke:#000000;stroke-width:0.141111;stroke-miterlimit:4;stroke-dasharray:none;stroke-opacity:0.658635"
         d="m 114.66272,113.48824 a 9.3840457,9.3840334 0 0 1 -9.38405,9.38404 9.3840457,9.3840334 0 0 1 -9.384025,-9.38404 9.3840457,9.3840334 0 0 1 9.384025,-9.38403 9.3840457,9.3840334 0 0 1 9.38405,9.38403 z" />
      <path
         id="path947-9-7-9-4"
         style="opacity:0.3;fill:none;stroke:#000000;stroke-width:0.141111;stroke-miterlimit:4;stroke-dasharray:none;stroke-opacity:0.658635"
         d="m 113.18103,113.48824 a 7.9023542,7.9023473 0 0 1 -7.90235,7.90236 7.9023542,7.9023473 0 0 1 -7.902348,-7.90236 7.9023542,7.9023473 0 0 1 7.902348,-7.90234 7.9023542,7.9023473 0 0 1 7.90235,7.90234 z" />
      <path
         id="path947-9-7-9-6"
         style="opacity:0.3;fill:none;stroke:#000000;stroke-width:0.141111;stroke-miterlimit:4;stroke-dasharray:none;stroke-opacity:0.658635"
         d="m 111.20544,113.48825 a 5.9267663,5.9267557 0 0 1 -5.92677,5.92676 5.9267663,5.9267557 0 0 1 -5.926749,-5.92676 5.9267663,5.9267557 0 0 1 5.926749,-5.92676 5.9267663,5.9267557 0 0 1 5.92677,5.92676 z" />
      <path
         id="path947-9-7-9-0"
         style="opacity:0.3;fill:none;stroke:#000000;stroke-width:0.141111;stroke-miterlimit:4;stroke-dasharray:none;stroke-opacity:0.658635"
         d="m 109.72375,113.48825 a 4.4450729,4.4450696 0 0 1 -4.44508,4.44507 4.4450729,4.4450696 0 0 1 -4.44506,-4.44507 4.4450729,4.4450696 0 0 1 4.44506,-4.44507 4.4450729,4.4450696 0 0 1 4.44508,4.44507 z" />
      <path
         id="path947-9-7-9-7"
         style="opacity:0.3;fill:none;stroke:#000000;stroke-width:0.141111;stroke-miterlimit:4;stroke-dasharray:none;stroke-opacity:0.658635"
         d="m 108.24207,113.48825 a 2.9633832,2.9633792 0 0 1 -2.96339,2.96338 2.9633832,2.9633792 0 0 1 -2.96338,-2.96338 2.9633832,2.9633792 0 0 1 2.96338,-2.96338 2.9633832,2.9633792 0 0 1 2.96339,2.96338 z" />
      <path
         id="path947-9-7-9-5"
         style="opacity:0.3;fill:none;stroke:#000000;stroke-width:0.141111;stroke-miterlimit:4;stroke-dasharray:none;stroke-opacity:0.658635"
         d="m 106.26648,113.48825 a 0.98779378,0.98779294 0 0 1 -0.9878,0.98779 0.98779378,0.98779294 0 0 1 -0.98779,-0.98779 0.98779378,0.98779294 0 0 1 0.98779,-0.9878 0.98779378,0.98779294 0 0 1 0.9878,0.9878 z" />
    </g>
  </g>
  <g
     inkscape:label="Network"
     inkscape:groupmode="layer"
     id="layer1"
     transform="translate(-112.55453,-61.910437)">
    <g
       transform="matrix(0.09769619,0,0,0.09769619,212.21964,124.53921)"
       id="g98">
      <g
         stroke-opacity="1"
         fill="none"
         stroke="#999999"
         stroke-linecap="round"
         id="g96">
        <path
           d="m -863.47565,-579.19427 66.31494,44.16448"
           id="path94" />
      </g>
      <!-- drawing style -->
    </g>
    <g
       transform="matrix(0.09769619,0,0,0.09769619,212.21964,124.53921)"
       id="g134">
      <g
         stroke-opacity="1"
         fill="none"
         stroke="#999999"
         stroke-linecap="round"
         id="g132">
        <path
           d="m -887.33856,-412.82812 -75.36176,38.8814"
           id="path130" />
      </g>
      <!-- drawing style -->
    </g>
    <g
       transform="matrix(0.09769619,0,0,0.09769619,212.21964,124.53921)"
       id="g140">
      <g
         stroke-opacity="1"
         fill="none"
         stroke="#999999"
         stroke-linecap="round"
         id="g138">
        <path
           d="m -715.29419,-569.4314 -41.44525,32.75727"
           id="path136" />
      </g>
      <!-- drawing style -->
    </g>
    <g
       transform="matrix(0.09769619,0,0,0.09769619,212.21964,124.53921)"
       id="g146">
      <g
         stroke-opacity="1"
         fill="none"
         stroke="#999999"
         stroke-linecap="round"
         id="g144">
        <path
           d="m -637.98511,-526.71887 -40.09729,-40.45789"
           id="path142" />
      </g>
      <!-- drawing style -->
    </g>
    <g
       transform="matrix(0.09769619,0,0,0.09769619,212.21964,124.53921)"
       id="g164">
      <g
         stroke-opacity="1"
         fill="none"
         stroke="#999999"
         stroke-linecap="round"
         id="g162">
        <path
           d="m -625.05542,-484.40201 -10.60937,55.8122"
           id="path160" />
      </g>
      <!-- drawing style -->
    </g>
    <g
       transform="matrix(0.09769619,0,0,0.09769619,212.21964,124.53921)"
       id="g170">
      <g
         stroke-opacity="1"
         fill="none"
         stroke="#999999"
         stroke-linecap="round"
         id="g168">
        <path
           d="m -663.63019,-413.0994 -48.0484,-18.70602"
           id="path166" />
      </g>
      <!-- drawing style -->
    </g>
    <g
       transform="matrix(0.09769619,0,0,0.09769619,212.21964,124.53921)"
       id="g176">
      <g
         stroke-opacity="1"
         fill="none"
         stroke="#999999"
         stroke-linecap="round"
         id="g174">
        <path
           d="m -645.31055,-510.91339 -106.11859,-8.30756"
           id="path172" />
      </g>
      <!-- drawing style -->
    </g>
    <g
       transform="matrix(0.09769619,0,0,0.09769619,212.21964,124.53921)"
       id="g188">
      <g
         stroke-opacity="1"
         fill="none"
         stroke="#999999"
         stroke-linecap="round"
         id="g186">
        <path
           d="m -641.87903,-496.1918 -71.60406,42.54617"
           id="path184" />
      </g>
      <!-- drawing style -->
    </g>
    <g
       transform="matrix(0.09769619,0,0,0.09769619,212.21964,124.53921)"
       id="g194">
      <g
         stroke-opacity="1"
         fill="none"
         stroke="#999999"
         stroke-linecap="round"
         id="g192">
        <path
           d="m -848.23218,-442.72333 54.99024,-60.01617"
           id="path190" />
      </g>
      <!-- drawing style -->
    </g>
    <g
       transform="matrix(0.09769619,0,0,0.09769619,212.21964,124.53921)"
       id="g200">
      <g
         stroke-opacity="1"
         fill="none"
         stroke="#999999"
         stroke-linecap="round"
         id="g198">
        <path
           d="m -840.32178,-427.4509 80.547,-10.26413"
           id="path196" />
      </g>
      <!-- drawing style -->
    </g>
    <g
       transform="matrix(0.09769619,0,0,0.09769619,212.21964,124.53921)"
       id="g248">
      <g
         stroke-opacity="1"
         fill="none"
         stroke="#999999"
         stroke-linecap="round"
         id="g246">
        <path
           d="m -764.90125,-498.94916 18.47425,35.85098"
           id="path244" />
      </g>
      <!-- drawing style -->
    </g>
    <g
       transform="matrix(0.09769619,0,0,0.09769619,212.21964,124.53921)"
       id="g512">
      <g
         stroke-opacity="1"
         fill="none"
         stroke="#999999"
         stroke-linecap="round"
         id="g510">
        <path
           d="m -859.78345,-593.05194 c 0,13.53098 -10.96902,24.5 -24.5,24.5 -13.53097,0 -24.5,-10.96902 -24.5,-24.5 0,-13.53098 10.96903,-24.5 24.5,-24.5 13.53098,0 24.5,10.96902 24.5,24.5 z"
           id="path508" />
      </g>
      <!-- drawing style -->
    </g>
    <g
       transform="matrix(0.09769619,0,0,0.09769619,212.21964,124.53921)"
       id="g518">
      <g
         fill="#865fab"
         fill-rule="nonzero"
         fill-opacity="1"
         stroke="none"
         id="g516">
        <path
           d="m -859.78345,-593.05194 c 0,13.53098 -10.96902,24.5 -24.5,24.5 -13.53097,0 -24.5,-10.96902 -24.5,-24.5 0,-13.53098 10.96903,-24.5 24.5,-24.5 13.53098,0 24.5,10.96902 24.5,24.5 z"
           id="path514" />
      </g>
      <!-- drawing style -->
    </g>
    <g
       transform="matrix(0.09769619,0,0,0.09769619,212.21964,124.53921)"
       id="g656">
      <g
         stroke-opacity="1"
         fill="none"
         stroke="#999999"
         stroke-linecap="round"
         id="g654">
        <path
           d="m -960.41766,-362.48413 c 0,13.53098 -10.96903,24.5 -24.5,24.5 -13.53098,0 -24.50004,-10.96902 -24.50004,-24.5 0,-13.53098 10.96906,-24.5 24.50004,-24.5 13.53097,0 24.5,10.96902 24.5,24.5 z"
           id="path652" />
      </g>
      <!-- drawing style -->
    </g>
    <g
       transform="matrix(0.09769619,0,0,0.09769619,212.21964,124.53921)"
       id="g662">
      <g
         fill="#865fab"
         fill-rule="nonzero"
         fill-opacity="1"
         stroke="none"
         id="g660">
        <path
           d="m -960.41766,-362.48413 c 0,13.53098 -10.96903,24.5 -24.5,24.5 -13.53098,0 -24.50004,-10.96902 -24.50004,-24.5 0,-13.53098 10.96906,-24.5 24.50004,-24.5 13.53097,0 24.5,10.96902 24.5,24.5 z"
           id="path658" />
      </g>
      <!-- drawing style -->
    </g>
    <g
       transform="matrix(0.09769619,0,0,0.09769619,212.21964,124.53921)"
       id="g692">
      <g
         stroke-opacity="1"
         fill="none"
         stroke="#999999"
         stroke-linecap="round"
         id="g690">
        <path
           d="m -671.18073,-584.93341 c 0,13.53098 -10.96902,24.5 -24.5,24.5 -13.53097,0 -24.5,-10.96902 -24.5,-24.5 0,-13.53098 10.96903,-24.5 24.5,-24.5 13.53098,0 24.5,10.96902 24.5,24.5 z"
           id="path688" />
      </g>
      <!-- drawing style -->
    </g>
    <g
       transform="matrix(0.09769619,0,0,0.09769619,212.21964,124.53921)"
       id="g698">
      <g
         fill="#865fab"
         fill-rule="nonzero"
         fill-opacity="1"
         stroke="none"
         id="g696">
        <path
           d="m -671.18073,-584.93341 c 0,13.53098 -10.96902,24.5 -24.5,24.5 -13.53097,0 -24.5,-10.96902 -24.5,-24.5 0,-13.53098 10.96903,-24.5 24.5,-24.5 13.53098,0 24.5,10.96902 24.5,24.5 z"
           id="path694" />
      </g>
      <!-- drawing style -->
    </g>
    <g
       transform="matrix(0.09769619,0,0,0.09769619,212.21964,124.53921)"
       id="g764">
      <g
         stroke-opacity="1"
         fill="none"
         stroke="#999999"
         stroke-linecap="round"
         id="g762">
        <path
           d="m -615.83344,-404.0296 c 0,13.53097 -10.96902,24.5 -24.5,24.5 -13.53097,0 -24.5,-10.96903 -24.5,-24.5 0,-13.53098 10.96903,-24.5 24.5,-24.5 13.53098,0 24.5,10.96902 24.5,24.5 z"
           id="path760" />
      </g>
      <!-- drawing style -->
    </g>
    <g
       transform="matrix(0.09769619,0,0,0.09769619,212.21964,124.53921)"
       id="g770">
      <g
         fill="#865fab"
         fill-rule="nonzero"
         fill-opacity="1"
         stroke="none"
         id="g768">
        <path
           d="m -615.83344,-404.0296 c 0,13.53097 -10.96902,24.5 -24.5,24.5 -13.53097,0 -24.5,-10.96903 -24.5,-24.5 0,-13.53098 10.96903,-24.5 24.5,-24.5 13.53098,0 24.5,10.96902 24.5,24.5 z"
           id="path766" />
      </g>
      <!-- drawing style -->
    </g>
    <g
       transform="matrix(0.09769619,0,0,0.09769619,212.21964,124.53921)"
       id="g800">
      <g
         stroke-opacity="1"
         fill="none"
         stroke="#999999"
         stroke-linecap="round"
         id="g798">
        <path
           d="m -595.88678,-508.96222 c 0,13.53098 -10.96902,24.5 -24.5,24.5 -13.53098,0 -24.5,-10.96902 -24.5,-24.5 0,-13.53098 10.96902,-24.5 24.5,-24.5 13.53098,0 24.5,10.96902 24.5,24.5 z"
           id="path796" />
      </g>
      <!-- drawing style -->
    </g>
    <g
       transform="matrix(0.09769619,0,0,0.09769619,212.21964,124.53921)"
       id="g806">
      <g
         fill="#865fab"
         fill-rule="nonzero"
         fill-opacity="1"
         stroke="none"
         id="g804">
        <path
           d="m -595.88678,-508.96222 c 0,13.53098 -10.96902,24.5 -24.5,24.5 -13.53098,0 -24.5,-10.96902 -24.5,-24.5 0,-13.53098 10.96902,-24.5 24.5,-24.5 13.53098,0 24.5,10.96902 24.5,24.5 z"
           id="path802" />
      </g>
      <!-- drawing style -->
    </g>
    <g
       transform="matrix(0.09769619,0,0,0.09769619,212.21964,124.53921)"
       id="g836">
      <g
         stroke-opacity="1"
         fill="none"
         stroke="#999999"
         stroke-linecap="round"
         id="g834">
        <path
           d="m -840.62122,-424.29071 c 0,13.53098 -10.96902,24.5 -24.5,24.5 -13.53097,0 -24.5,-10.96902 -24.5,-24.5 0,-13.53098 10.96903,-24.5 24.5,-24.5 13.53098,0 24.5,10.96902 24.5,24.5 z"
           id="path832" />
      </g>
      <!-- drawing style -->
    </g>
    <g
       transform="matrix(0.09769619,0,0,0.09769619,212.21964,124.53921)"
       id="g842">
      <g
         fill="#865fab"
         fill-rule="nonzero"
         fill-opacity="1"
         stroke="none"
         id="g840">
        <path
           d="m -840.62122,-424.29071 c 0,13.53098 -10.96902,24.5 -24.5,24.5 -13.53097,0 -24.5,-10.96902 -24.5,-24.5 0,-13.53098 10.96903,-24.5 24.5,-24.5 13.53098,0 24.5,10.96902 24.5,24.5 z"
           id="path838" />
      </g>
      <!-- drawing style -->
    </g>
    <g
       transform="matrix(0.09769619,0,0,0.09769619,212.21964,124.53921)"
       id="g1304">
      <g
         stroke-opacity="1"
         fill="none"
         stroke="#999999"
         stroke-linecap="round"
         id="g1302">
        <path
           d="m -710.47534,-440.87521 c 0,13.53097 -10.96903,24.5 -24.5,24.5 -13.53098,0 -24.5,-10.96903 -24.5,-24.5 0,-13.53098 10.96902,-24.5 24.5,-24.5 13.53097,0 24.5,10.96902 24.5,24.5 z"
           id="path1300" />
      </g>
      <!-- drawing style -->
    </g>
    <g
       transform="matrix(0.09769619,0,0,0.09769619,212.21964,124.53921)"
       id="g1310">
      <g
         fill="#865fab"
         fill-rule="nonzero"
         fill-opacity="1"
         stroke="none"
         id="g1308">
        <path
           d="m -710.47534,-440.87521 c 0,13.53097 -10.96903,24.5 -24.5,24.5 -13.53098,0 -24.5,-10.96903 -24.5,-24.5 0,-13.53098 10.96902,-24.5 24.5,-24.5 13.53097,0 24.5,10.96902 24.5,24.5 z"
           id="path1306" />
      </g>
      <!-- drawing style -->
    </g>
    <g
       transform="matrix(0.09769619,0,0,0.09769619,212.21964,124.53921)"
       id="g1376">
      <g
         stroke-opacity="1"
         fill="none"
         stroke="#999999"
         stroke-linecap="round"
         id="g1374">
        <path
           d="m -751.85291,-521.17212 c 0,13.53098 -10.96902,24.5 -24.5,24.5 -13.53097,0 -24.5,-10.96902 -24.5,-24.5 0,-13.53098 10.96903,-24.5 24.5,-24.5 13.53098,0 24.5,10.96902 24.5,24.5 z"
           id="path1372" />
      </g>
      <!-- drawing style -->
    </g>
    <g
       transform="matrix(0.09769619,0,0,0.09769619,212.21964,124.53921)"
       id="g1382">
      <g
         fill="#865fab"
         fill-rule="nonzero"
         fill-opacity="1"
         stroke="none"
         id="g1380">
        <path
           d="m -751.85291,-521.17212 c 0,13.53098 -10.96902,24.5 -24.5,24.5 -13.53097,0 -24.5,-10.96902 -24.5,-24.5 0,-13.53098 10.96903,-24.5 24.5,-24.5 13.53098,0 24.5,10.96902 24.5,24.5 z"
           id="path1378" />
      </g>
      <!-- drawing style -->
    </g>
    <path
       style="opacity:0.3;fill:#000000;stroke:#000000;stroke-width:0.348256"
       d="m 47.489658,21.438638 c -5.862962,-1.820486 -8.023993,-9.421322 -4.011427,-14.1091025 1.861621,-2.174886 3.700778,-2.9994761 6.689998,-2.9994761 2.98922,0 4.828377,0.8245901 6.689999,2.9994761 4.069352,4.7541235 1.832546,12.3429425 -4.165535,14.1324255 -2.12726,0.634652 -3.098009,0.630301 -5.203035,-0.02332 z"
       id="path911"
       transform="matrix(0.26458333,0,0,0.26458333,112.55453,63.15789)" />
    <path
       style="opacity:0.3;fill:#000000;stroke:#000000;stroke-width:0.348256"
       d="m 51.018759,21.828701 c -0.07494,-0.07347 -0.859458,-0.176418 -1.743387,-0.228769 -2.419909,-0.143321 -4.443782,-1.314447 -6.333843,-3.665117 -0.841545,-1.04663 -1.40264,-3.351919 -1.32594,-5.447697 0.111681,-3.0516156 1.735881,-5.575346 4.624069,-7.1850157 1.334478,-0.743743 1.709214,-0.8221674 3.928571,-0.8221674 2.228014,0 2.569095,0.072643 4.070469,0.8669197 2.678923,1.4172399 4.278458,3.9589395 4.447976,7.0679434 0.134363,2.464261 -0.265448,3.883902 -1.660931,5.897583 -0.823871,1.188846 -3.431028,2.96113 -4.436785,3.016022 -0.152829,0.0083 -0.537991,0.154377 -0.855914,0.324524 -0.317922,0.170148 -0.639351,0.249245 -0.714285,0.175774 z"
       id="path913"
       transform="matrix(0.26458333,0,0,0.26458333,112.55453,63.15789)" />
    <path
       style="opacity:0.3;fill:#000000;stroke:#000000;stroke-width:0.348256"
       d="m 87.044478,47.89613 c -2.998624,-1.150368 -5.316243,-4.022832 -5.828011,-7.223254 -0.384102,-2.402039 0.680839,-5.338005 2.650742,-7.307908 4.528501,-4.528501 11.595734,-3.092123 14.308684,2.908163 1.750629,3.8719 0.105144,8.668913 -3.748267,10.927162 -1.972365,1.155883 -5.353355,1.47453 -7.383148,0.695837 z"
       id="path915"
       transform="matrix(0.26458333,0,0,0.26458333,112.55453,63.15789)" />
    <path
       style="opacity:0.3;fill:#000000;stroke:#000000;stroke-width:0.348256"
       d="m 87.124472,47.781403 c -1.942308,-0.784749 -3.461355,-2.099834 -4.52812,-3.920131 -1.153554,-1.96839 -1.216712,-2.203976 -1.227268,-4.577814 -0.0081,-1.818118 1.136195,-4.492313 2.509301,-5.864264 0.6222,-0.621676 2.550842,-1.91519 2.986273,-2.002852 0.147321,-0.02966 0.348214,-0.0941 0.446428,-0.143211 0.09821,-0.04911 0.299107,-0.118448 0.446429,-0.154091 0.147321,-0.03564 0.773954,-0.185474 1.392517,-0.332958 1.886661,-0.449836 4.936381,0.661997 6.767544,2.467236 2.140216,2.109917 2.705809,3.48727 2.647269,6.446735 -0.06294,3.181829 -1.246707,5.525485 -3.566198,7.060452 -2.12691,1.407522 -5.753494,1.877714 -7.874175,1.020898 z"
       id="path917"
       transform="matrix(0.26458333,0,0,0.26458333,112.55453,63.15789)" />
    <path
       style="opacity:0.3;fill:#000000;stroke:#000000;stroke-width:0.348256"
       d="m 116.2198,23.99681 c -2.02421,-0.942579 -4.21631,-3.27174 -4.83038,-5.132397 -0.22387,-0.67835 -0.34262,-2.245103 -0.26388,-3.481672 0.19117,-3.002343 1.58177,-5.296425 4.14084,-6.831188 3.19828,-1.9181163 5.8919,-1.9176717 9.09192,0.0015 3.37937,2.026733 4.95411,6.103532 3.88757,10.06439 -0.88681,3.293359 -4.85565,6.220138 -8.43478,6.220138 -1.12586,0 -2.45292,-0.310684 -3.59129,-0.840771 z"
       id="path919"
       transform="matrix(0.26458333,0,0,0.26458333,112.55453,63.15789)" />
    <path
       style="opacity:0.3;fill:#000000;stroke:#000000;stroke-width:0.348256"
       d="m 145.28271,52.574212 c -2.68415,-0.74455 -5.04483,-2.876648 -6.01742,-5.434745 -0.58059,-1.52705 -0.47975,-4.805965 0.20004,-6.504924 0.79798,-1.994348 3.59273,-4.484888 5.69239,-5.072754 8.19673,-2.294943 14.544,7.192267 9.35947,13.989528 -1.97739,2.592494 -6.01787,3.915142 -9.23448,3.022895 z"
       id="path921"
       transform="matrix(0.26458333,0,0,0.26458333,112.55453,63.15789)" />
    <path
       style="opacity:0.3;fill:#000000;stroke:#000000;stroke-width:0.348256"
       d="m 136.5968,90.798756 c -4.14495,-2.005154 -6.06257,-6.313661 -4.754,-10.681273 0.56767,-1.894721 3.13694,-4.688299 5.01909,-5.457292 1.85233,-0.756807 5.02093,-0.793057 6.73458,-0.07705 5.74432,2.400129 7.25809,10.135224 2.82619,14.441288 -2.65894,2.583446 -6.65983,3.305916 -9.82586,1.774324 z"
       id="path923"
       transform="matrix(0.26458333,0,0,0.26458333,112.55453,63.15789)" />
    <path
       style="opacity:0.3;fill:#000000;stroke:#000000;stroke-width:0.348256"
       d="m 102.39965,77.568451 c -4.577965,-1.699171 -7.091933,-6.855869 -5.444877,-11.168625 2.408391,-6.306281 9.684767,-8.026412 14.447957,-3.415488 5.55697,5.37933 2.08044,14.509382 -5.69879,14.966142 -1.09538,0.06432 -2.55704,-0.104675 -3.30429,-0.382029 z"
       id="path925"
       transform="matrix(0.26458333,0,0,0.26458333,112.55453,63.15789)" />
    <path
       style="opacity:0.3;fill:#000000;stroke:#000000;stroke-width:0.348256"
       d="m 54.216891,83.631559 c -2.635532,-0.941359 -4.740699,-3.323731 -5.490203,-6.213143 -0.953728,-3.676719 0.719893,-7.590278 4.117139,-9.627428 1.664259,-0.997968 2.263368,-1.159614 4.272889,-1.15287 2.964907,0.0099 4.778511,0.814382 6.663189,2.95549 3.973002,4.513568 2.579342,11.096363 -2.89739,13.685491 -2.022339,0.956062 -4.594873,1.092091 -6.665624,0.35246 z"
       id="path927"
       transform="matrix(0.26458333,0,0,0.26458333,112.55453,63.15789)" />
    <path
       style="opacity:0.3;fill:#000000;stroke:#000000;stroke-width:0.348256"
       d="m 54.28655,83.59456 c -1.470608,-0.423965 -5.011178,-3.821064 -5.011178,-4.808115 0,-0.376994 -0.153154,-0.780099 -0.340341,-0.895787 -0.187188,-0.115688 -0.302716,-1.391676 -0.256729,-2.835529 0.07121,-2.235868 0.236746,-2.846157 1.116193,-4.1152 1.134385,-1.636918 3.186552,-3.400854 4.518754,-3.884086 0.97122,-0.352292 4.217726,-0.294957 5.930137,0.104731 1.921827,0.448566 4.804905,3.611134 5.377015,5.898272 0.0737,0.294642 0.169475,1.403555 0.212828,2.46425 0.09387,2.296679 -0.915031,4.478023 -2.933062,6.341571 -1.979524,1.827989 -5.689134,2.572999 -8.613617,1.729893 z"
       id="path929"
       transform="matrix(0.26458333,0,0,0.26458333,112.55453,63.15789)" />
    <path
       style="opacity:0.3;fill:#000000;stroke:#000000;stroke-width:0.348256"
       d="m 116.96485,24.218116 c -0.77972,-0.262848 -1.50293,-0.594745 -1.60714,-0.737551 -0.10422,-0.142805 -0.62397,-0.535993 -1.15502,-0.873749 -1.70029,-1.081426 -2.88693,-3.585369 -2.88872,-6.095532 -0.002,-3.517378 0.56975,-4.964685 2.7018,-6.8332392 2.65692,-2.3285578 5.13142,-2.9640581 8.12475,-2.0865913 2.25208,0.660179 5.44281,3.6478455 5.88511,5.5105795 0.48096,2.025535 0.42459,4.706119 -0.12892,6.130355 -1.55933,4.012318 -6.76994,6.388737 -10.93186,4.985728 z"
       id="path931"
       transform="matrix(0.26458333,0,0,0.26458333,112.55453,63.15789)" />
    <path
       style="opacity:0.3;fill:#000000;stroke:#000000;stroke-width:0.348256"
       d="m 143.91823,51.908669 c -1.73208,-0.969529 -3.51335,-2.722028 -4.27604,-4.206966 -0.48372,-0.941779 -0.62117,-1.927987 -0.55746,-3.999598 0.11081,-3.603091 1.02654,-5.089648 4.47636,-7.266773 1.4049,-0.886615 1.93017,-1.009106 4.17423,-0.973427 3.1083,0.04942 5.28865,1.143981 6.85351,3.440528 1.5137,2.221485 1.96614,4.987146 1.29853,7.937705 -0.34963,1.545243 -2.8229,4.312455 -4.57039,5.113566 -2.01445,0.923497 -5.70862,0.901011 -7.39874,-0.04503 z"
       id="path933"
       transform="matrix(0.26458333,0,0,0.26458333,112.55453,63.15789)" />
    <path
       style="opacity:0.3;fill:#000000;stroke:#000000;stroke-width:0.348256"
       d="m 138.38472,91.335619 c -0.0634,-0.06385 -0.33094,-0.159687 -0.59448,-0.21298 -2.41209,-0.487779 -5.27013,-3.338888 -5.93533,-5.920936 -0.92926,-3.606977 0.63859,-7.596592 3.86362,-9.831539 1.28752,-0.89225 1.84506,-1.036667 4.2167,-1.092223 3.89264,-0.09118 6.21426,1.252732 8.01825,4.641522 0.72292,1.358003 0.86717,2.075687 0.7808,3.884705 -0.14556,3.048487 -0.35722,3.766545 -1.54157,5.229843 -0.9488,1.172285 -3.50455,2.89549 -4.7208,3.182985 -0.71081,0.168021 -3.94487,0.261883 -4.08719,0.118623 z"
       id="path935"
       transform="matrix(0.26458333,0,0,0.26458333,112.55453,63.15789)" />
    <path
       style="opacity:0.3;fill:#000000;stroke:#000000;stroke-width:0.348256"
       d="m 102.31109,77.377965 c -0.78572,-0.298015 -1.64095,-0.748875 -1.90051,-1.001911 -0.25957,-0.253036 -0.59982,-0.460066 -0.756116,-0.460066 -0.402475,0 -2.256734,-2.828474 -2.692513,-4.107142 -0.371207,-1.089201 -0.406255,-3.657962 -0.06899,-5.05638 0.331849,-1.375959 2.123059,-3.726875 3.609409,-4.737255 1.8743,-1.274098 4.37011,-1.899679 5.86663,-1.470484 0.62363,0.178854 1.21547,0.327818 1.31519,0.33103 0.82427,0.02655 3.87139,2.180023 4.54714,3.213573 2.01951,3.088785 2.33376,4.941155 1.31125,7.729123 -1.11405,3.037571 -3.29216,5.109065 -6.05292,5.756643 -1.5777,0.370071 -3.91803,0.280983 -5.17857,-0.197131 z"
       id="path937"
       transform="matrix(0.26458333,0,0,0.26458333,112.55453,63.15789)" />
    <path
       style="opacity:0.3;fill:#000000;stroke:#000000;stroke-width:0.348256"
       d="m 9.4340834,106.13967 c -2.024205,-0.94258 -4.2163045,-3.27174 -4.8303765,-5.1324 -0.223876,-0.67835 -0.3426245,-2.245103 -0.2638857,-3.481672 0.1911748,-3.002343 1.581773,-5.296425 4.1408458,-6.831188 3.198278,-1.918116 5.891898,-1.917672 9.091921,0.0015 3.405515,2.042413 4.954538,6.080915 3.848138,10.03259 -0.956667,3.41688 -4.7637,6.25194 -8.395354,6.25194 -1.125854,0 -2.452914,-0.31068 -3.5912886,-0.84077 z"
       id="path939"
       transform="matrix(0.26458333,0,0,0.26458333,112.55453,63.15789)" />
    <path
       style="opacity:0.3;fill:#000000;stroke:#000000;stroke-width:0.348256"
       d="m 10.416999,106.43808 c -2.1660602,-0.71955 -4.7969261,-3.00545 -5.4976847,-4.77683 -0.4979722,-1.25877 -0.4840977,-4.882113 0.025682,-6.706927 0.7299006,-2.612762 4.3425531,-5.236719 7.7934987,-5.660607 1.824269,-0.22408 4.418799,0.948294 6.331465,2.86096 1.995561,1.995561 2.420727,3.027029 2.507277,6.082741 0.158251,5.587233 -5.814859,9.976333 -11.160238,8.200663 z"
       id="path941"
       transform="matrix(0.26458333,0,0,0.26458333,112.55453,63.15789)" />
  </g>
</svg>
